<svg xmlns="http://www.w3.org/2000/svg" viewBox="0 0 48 48">
  <defs>
    <linearGradient id="folderBody" x1="0" y1="16" x2="0" y2="44" gradientUnits="userSpaceOnUse">
      <stop offset="0" stop-color="#FFD04A"/>
      <stop offset="1" stop-color="#FFA000"/>
    </linearGradient>
  </defs>
  <!-- Folder tab -->
  <path d="M4 16 L4 12 Q4 10 6 10 L19 10 Q21 10 22 12 L25 16 Z" fill="#FFBA3C"/>
  <!-- Folder body -->
  <path d="M4 16 L44 16 L44 40 Q44 44 40 44 L8 44 Q4 44 4 40 Z" fill="url(#folderBody)"/>
  <!-- Picture frame badge -->
  <rect x="15" y="21" width="18" height="14" rx="2" fill="white" opacity="0.9"/>
  <!-- Sky -->
  <rect x="15" y="21" width="18" height="8" rx="2" fill="#64B5F6" opacity="0.8"/>
  <!-- Mountains -->
  <polygon points="15,29 20,23 25,29" fill="#81C784" opacity="0.9"/>
  <polygon points="22,29 27,24 33,29" fill="#4CAF50" opacity="0.9"/>
  <!-- Sun -->
  <circle cx="30" cy="24" r="2.5" fill="#FFD04A" opacity="0.9"/>
</svg>
