<svg xmlns="http://www.w3.org/2000/svg" viewBox="0 0 48 48">
  <defs>
    <linearGradient id="folderBody" x1="0" y1="16" x2="0" y2="44" gradientUnits="userSpaceOnUse">
      <stop offset="0" stop-color="#FFD04A"/>
      <stop offset="1" stop-color="#FFA000"/>
    </linearGradient>
  </defs>
  <!-- Folder tab -->
  <path d="M4 16 L4 12 Q4 10 6 10 L19 10 Q21 10 22 12 L25 16 Z" fill="#FFBA3C"/>
  <!-- Folder body -->
  <path d="M4 16 L44 16 L44 40 Q44 44 40 44 L8 44 Q4 44 4 40 Z" fill="url(#folderBody)"/>
  <!-- Document badge -->
  <path d="M17 21 L17 39 L31 39 L31 27 L25 21 Z" fill="white" opacity="0.9"/>
  <path d="M25 21 L25 27 L31 27" fill="none" stroke="#FFA000" stroke-width="1.5"/>
  <line x1="20" y1="30" x2="28" y2="30" stroke="#BDBDBD" stroke-width="1.5" stroke-linecap="round"/>
  <line x1="20" y1="33" x2="28" y2="33" stroke="#BDBDBD" stroke-width="1.5" stroke-linecap="round"/>
  <line x1="20" y1="36" x2="25" y2="36" stroke="#BDBDBD" stroke-width="1.5" stroke-linecap="round"/>
</svg>
